# xmcd
#
# Track frame offsets:
#	150
#	11777
#	27816
#	41536
#	60654
#	76931
#	95407
#	110052
#	138977
#	155440
#	171148
#	187457
#	199562
#	209048
#	223420
#	237003
#	248608
#	272395
#
# Disc length: 3809
#
# Revision: 1
# Processed by: cddbd v1.5.1PL0 Copyright (c) Steve Scherf et al.
# Submitted via: audiograbber 1.82.00
# Normalized: r0:DSETVAR1
#
DISCID=000edf12
DTITLE=Various Artist - Urban Cowboy
DYEAR=1980
DGENRE=Country
TTITLE0=Jimmy Buffett - Hello Texas
TTITLE1=Joe Walsh - All Night Long
TTITLE2=Dan Fogelberg - Times Like These
TTITLE3=Bob Segar - Nine Tonight
TTITLE4=Mickey Gilley - Stand By Me
TTITLE5=Johnny Lee - Cherokee Fiddle
TTITLE6=Anne Murray - Could I Have This Dance
TTITLE7=Eagles - Lyin' Eyes
TTITLE8=Johnny Lee - Lookin' For Love
TTITLE9=Bonnie Raitt - Don't It Make You Wanna Dance
TTITLE10=Charlie Daniels Band - The Devil Went Down to Georgia
TTITLE11=Mickey Gilley - Here Comes The Hurt Again
TTITLE12=Mickey Gilley - Orange Blossom Special Hoedown
TTITLE13=Kenny Rogers - Love The World Away
TTITLE14=Charlie Daniels Band - Falling in Love for the Night
TTITLE15=Bonnie Raitt - Darlin'
TTITLE16=Boz Skaggs - Love, Look What You've Done to Me
TTITLE17=Linda Ronstadt and JD Souther - Hearts Against The Wind
EXTD=
EXTT0=
EXTT1=
EXTT2=
EXTT3=
EXTT4=
EXTT5=
EXTT6=
EXTT7=
EXTT8=
EXTT9=
EXTT10=
EXTT11=
EXTT12=
EXTT13=
EXTT14=
EXTT15=
EXTT16=
EXTT17=
PLAYORDER=
